ffmpeg started on 2025-06-06 at 16:35:48
Report written to "D:\Convert\FFMetrics\reports\psnr_report-6.txt"
Log level: 32
Command line:
ffmpeg -hide_banner -nostdin -i "G:\\\xc0\xed\xe8\xec\xe5\\\xce\xed\xe3\xee\xe8\xed\xe3\xe8\\!_36_\xce\xf1\xe5\xed\xfc_2024\\DreamCast\\\xcf\xe5\xf0\xe5\xf0\xee\xe6\xe4\xe5\xed\xe8\xe5 \xe2 \xe0\xf0\xe8\xf1\xf2\xee\xea\xf0\xe0\xf2\xe0 \xf1\xee \xf1\xef\xee\xf1\xee\xe1\xed\xee\xf1\xf2\xfc\xfe \xe0\xed\xe0\xeb\xe8\xe7\xe0\\\xd2\xc2-2\\DC_Tensei_Kizoku_Kantei_Skill_de_Nariagaru_S2_12_Telegram_HEVC.mkv" -i "G:\\\xc0\xed\xe8\xec\xe5\\\xce\xed\xe3\xee\xe8\xed\xe3\xe8\\!_36_\xce\xf1\xe5\xed\xfc_2024\\DreamCast\\\xcf\xe5\xf0\xe5\xf0\xee\xe6\xe4\xe5\xed\xe8\xe5 \xe2 \xe0\xf0\xe8\xf1\xf2\xee\xea\xf0\xe0\xf2\xe0 \xf1\xee \xf1\xef\xee\xf1\xee\xe1\xed\xee\xf1\xf2\xfc\xfe \xe0\xed\xe0\xeb\xe8\xe7\xe0\\\xd2\xc2-2\\DC_Tensei_Kizoku_Kantei_Skill_de_Nariagaru_S2_12_Telegram.mp4" -lavfi "[0:v]settb=AVTB,setpts=PTS-STARTPTS,format=pix_fmts=yuv420p10,fps=24000/1001,scale=1920:1080:flags=bicubic[main];[1:v]settb=AVTB,setpts=PTS-STARTPTS,format=pix_fmts=yuv420p,fps=24000/1001,scale=1920:1080:flags=bicubic[ref];[main][ref]psnr=eof_action=endall:stats_file='D\\:/Convert/FFMetrics/logs/psnr_logfile-6.txt'" -f null -
Input #0, matroska,webm, from 'G:\Аниме\Онгоинги\!_36_Осень_2024\DreamCast\Перерождение в аристократа со способностью анализа\ТВ-2\DC_Tensei_Kizoku_Kantei_Skill_de_Nariagaru_S2_12_Telegram_HEVC.mkv':
  Metadata:
    COMPATIBLE_BRANDS: isomiso2avc1mp41
    MAJOR_BRAND     : isom
    MINOR_VERSION   : 512
    ENCODER         : Lavf61.7.100
  Duration: 00:23:31.76, start: -0.021000, bitrate: 1451 kb/s
  Chapters:
    Chapter #0:0: start 0.000000, end 25.000000
      Metadata:
        title           : 
    Chapter #0:1: start 25.000000, end 115.000000
      Metadata:
        title           : 
    Chapter #0:2: start 115.000000, end 1411.699000
      Metadata:
        title           : 
  Stream #0:0: Video: hevc (Main 10), yuv420p10le(tv, bt709, progressive), 1920x1080 [SAR 1:1 DAR 16:9], 23.98 fps, 23.98 tbr, 1k tbn (default)
      Metadata:
        HANDLER_NAME    : VideoHandler
        VENDOR_ID       : [0][0][0][0]
        ENCODER         : Lavc61.19.100 libx265
        BPS             : 1253463
        DURATION        : 00:23:31.618708333
        NUMBER_OF_FRAMES: 33845
        NUMBER_OF_BYTES : 221176504
        _STATISTICS_WRITING_APP: mkvpropedit v66.0.0 ('Josie') 64-bit
        _STATISTICS_WRITING_DATE_UTC: 2025-06-02 11:09:59
        _STATISTICS_TAGS: BPS DURATION NUMBER_OF_FRAMES NUMBER_OF_BYTES
  Stream #0:1: Audio: aac (LC), 48000 Hz, stereo, fltp (default)
      Metadata:
        HANDLER_NAME    : SoundHandler
        VENDOR_ID       : [0][0][0][0]
        ENCODER         : Lavc61.19.100 aac
        BPS             : 193729
        DURATION        : 00:23:31.754000000
        NUMBER_OF_FRAMES: 66177
        NUMBER_OF_BYTES : 34187384
        _STATISTICS_WRITING_APP: mkvpropedit v66.0.0 ('Josie') 64-bit
        _STATISTICS_WRITING_DATE_UTC: 2025-06-02 11:09:59
        _STATISTICS_TAGS: BPS DURATION NUMBER_OF_FRAMES NUMBER_OF_BYTES
[mov,mp4,m4a,3gp,3g2,mj2 @ 000001cf6dc84400] Referenced QT chapter track not found
Input #1, mov,mp4,m4a,3gp,3g2,mj2, from 'G:\Аниме\Онгоинги\!_36_Осень_2024\DreamCast\Перерождение в аристократа со способностью анализа\ТВ-2\DC_Tensei_Kizoku_Kantei_Skill_de_Nariagaru_S2_12_Telegram.mp4':
  Metadata:
    major_brand     : isom
    minor_version   : 512
    compatible_brands: isomiso2avc1mp41
    encoder         : Lavf61.7.100
  Duration: 00:23:31.70, start: 0.000000, bitrate: 3699 kb/s
  Chapters:
    Chapter #1:0: start 0.000000, end 25.000000
      Metadata:
        title           : 
    Chapter #1:1: start 25.000000, end 115.000000
      Metadata:
        title           : 
    Chapter #1:2: start 115.000000, end 1411.699000
      Metadata:
        title           : 
  Stream #1:0[0x1](und): Video: h264 (High) (avc1 / 0x31637661), yuv420p(tv, bt709, progressive), 1920x1080 [SAR 1:1 DAR 16:9], 3551 kb/s, 23.98 fps, 23.98 tbr, 24k tbn (default)
      Metadata:
        handler_name    : VideoHandler
        vendor_id       : [0][0][0][0]
        encoder         : Lavc61.19.101 h264_qsv
  Stream #1:1[0x2](und): Audio: aac (HE-AACv2) (mp4a / 0x6134706D), 48000 Hz, stereo, fltp, 144 kb/s (default)
      Metadata:
        handler_name    : SoundHandler
        vendor_id       : [0][0][0][0]
Stream mapping:
  Stream #0:0 (hevc) -> settb:default
  Stream #1:0 (h264) -> settb:default
  psnr:default -> Stream #0:0 (wrapped_avframe)
  Stream #0:1 -> #0:1 (aac (native) -> pcm_s16le (native))
Output #0, null, to 'pipe:':
  Metadata:
    COMPATIBLE_BRANDS: isomiso2avc1mp41
    MAJOR_BRAND     : isom
    MINOR_VERSION   : 512
    encoder         : Lavf61.7.100
  Chapters:
    Chapter #0:0: start 0.021000, end 25.021000
      Metadata:
        title           : 
    Chapter #0:1: start 25.021000, end 115.021000
      Metadata:
        title           : 
    Chapter #0:2: start 115.021000, end 1411.720000
      Metadata:
        title           : 
  Stream #0:0: Video: wrapped_avframe, yuv420p10le(tv, bt709, progressive), 1920x1080 [SAR 1:1 DAR 16:9], q=2-31, 200 kb/s, 23.98 fps, 23.98 tbn
      Metadata:
        encoder         : Lavc61.19.100 wrapped_avframe
  Stream #0:1: Audio: pcm_s16le, 48000 Hz, stereo, s16, 1536 kb/s (default)
      Metadata:
        HANDLER_NAME    : SoundHandler
        VENDOR_ID       : [0][0][0][0]
        _STATISTICS_TAGS: BPS DURATION NUMBER_OF_FRAMES NUMBER_OF_BYTES
        BPS             : 193729
        DURATION        : 00:23:31.754000000
        NUMBER_OF_FRAMES: 66177
        NUMBER_OF_BYTES : 34187384
        _STATISTICS_WRITING_APP: mkvpropedit v66.0.0 ('Josie') 64-bit
        _STATISTICS_WRITING_DATE_UTC: 2025-06-02 11:09:59
        encoder         : Lavc61.19.100 pcm_s16le
frame=  162 fps=0.0 q=-0.0 size=N/A time=00:00:06.75 bitrate=N/A speed=12.9x    frame=  353 fps=343 q=-0.0 size=N/A time=00:00:14.72 bitrate=N/A speed=14.3x    frame=  552 fps=355 q=-0.0 size=N/A time=00:00:23.02 bitrate=N/A speed=14.8x    frame=  798 fps=385 q=-0.0 size=N/A time=00:00:33.28 bitrate=N/A speed=  16x    frame=  975 fps=377 q=-0.0 size=N/A time=00:00:40.66 bitrate=N/A speed=15.7x    frame= 1153 fps=371 q=-0.0 size=N/A time=00:00:48.08 bitrate=N/A speed=15.5x    frame= 1330 fps=367 q=-0.0 size=N/A time=00:00:55.47 bitrate=N/A speed=15.3x    frame= 1526 fps=369 q=-0.0 size=N/A time=00:01:03.64 bitrate=N/A speed=15.4x    frame= 1655 fps=356 q=-0.0 size=N/A time=00:01:09.02 bitrate=N/A speed=14.8x    frame= 1829 fps=354 q=-0.0 size=N/A time=00:01:16.28 bitrate=N/A speed=14.8x    frame= 2001 fps=352 q=-0.0 size=N/A time=00:01:23.45 bitrate=N/A speed=14.7x    frame= 2190 fps=353 q=-0.0 size=N/A time=00:01:31.34 bitrate=N/A speed=14.7x    frame= 2378 fps=354 q=-0.0 size=N/A time=00:01:39.18 bitrate=N/A speed=14.8x    frame= 2542 fps=352 q=-0.0 size=N/A time=00:01:46.02 bitrate=N/A speed=14.7x    frame= 2722 fps=351 q=-0.0 size=N/A time=00:01:53.53 bitrate=N/A speed=14.7x    frame= 2891 fps=350 q=-0.0 size=N/A time=00:02:00.57 bitrate=N/A speed=14.6x    frame= 3106 fps=354 q=-0.0 size=N/A time=00:02:09.54 bitrate=N/A speed=14.8x    frame= 3304 fps=356 q=-0.0 size=N/A time=00:02:17.80 bitrate=N/A speed=14.8x    frame= 3503 fps=357 q=-0.0 size=N/A time=00:02:26.10 bitrate=N/A speed=14.9x    frame= 3716 fps=360 q=-0.0 size=N/A time=00:02:34.98 bitrate=N/A speed=  15x    frame= 3942 fps=364 q=-0.0 size=N/A time=00:02:44.41 bitrate=N/A speed=15.2x    frame= 4177 fps=368 q=-0.0 size=N/A time=00:02:54.21 bitrate=N/A speed=15.3x    frame= 4415 fps=372 q=-0.0 size=N/A time=00:03:04.14 bitrate=N/A speed=15.5x    frame= 4630 fps=373 q=-0.0 size=N/A time=00:03:13.10 bitrate=N/A speed=15.6x    frame= 4829 fps=374 q=-0.0 size=N/A time=00:03:21.40 bitrate=N/A speed=15.6x    frame= 5015 fps=373 q=-0.0 size=N/A time=00:03:29.16 bitrate=N/A speed=15.6x    frame= 5198 fps=373 q=-0.0 size=N/A time=00:03:36.79 bitrate=N/A speed=15.6x    frame= 5396 fps=373 q=-0.0 size=N/A time=00:03:45.05 bitrate=N/A speed=15.6x    frame= 5597 fps=374 q=-0.0 size=N/A time=00:03:53.44 bitrate=N/A speed=15.6x    frame= 5803 fps=375 q=-0.0 size=N/A time=00:04:02.03 bitrate=N/A speed=15.6x    frame= 5998 fps=375 q=-0.0 size=N/A time=00:04:10.16 bitrate=N/A speed=15.6x    frame= 6201 fps=375 q=-0.0 size=N/A time=00:04:18.63 bitrate=N/A speed=15.7x    frame= 6423 fps=377 q=-0.0 size=N/A time=00:04:27.89 bitrate=N/A speed=15.7x    frame= 6605 fps=376 q=-0.0 size=N/A time=00:04:35.48 bitrate=N/A speed=15.7x    frame= 6793 fps=376 q=-0.0 size=N/A time=00:04:43.32 bitrate=N/A speed=15.7x    frame= 6982 fps=376 q=-0.0 size=N/A time=00:04:51.20 bitrate=N/A speed=15.7x    frame= 7221 fps=378 q=-0.0 size=N/A time=00:05:01.17 bitrate=N/A speed=15.8x    frame= 7435 fps=379 q=-0.0 size=N/A time=00:05:10.10 bitrate=N/A speed=15.8x    frame= 7640 fps=379 q=-0.0 size=N/A time=00:05:18.65 bitrate=N/A speed=15.8x    frame= 7859 fps=381 q=-0.0 size=N/A time=00:05:27.78 bitrate=N/A speed=15.9x    frame= 8053 fps=381 q=-0.0 size=N/A time=00:05:35.87 bitrate=N/A speed=15.9x    frame= 8268 fps=381 q=-0.0 size=N/A time=00:05:44.84 bitrate=N/A speed=15.9x    frame= 8494 fps=383 q=-0.0 size=N/A time=00:05:54.27 bitrate=N/A speed=  16x    frame= 8718 fps=384 q=-0.0 size=N/A time=00:06:03.61 bitrate=N/A speed=  16x    frame= 8935 fps=385 q=-0.0 size=N/A time=00:06:12.66 bitrate=N/A speed=  16x    frame= 9148 fps=385 q=-0.0 size=N/A time=00:06:21.54 bitrate=N/A speed=16.1x    frame= 9366 fps=386 q=-0.0 size=N/A time=00:06:30.64 bitrate=N/A speed=16.1x    frame= 9559 fps=386 q=-0.0 size=N/A time=00:06:38.68 bitrate=N/A speed=16.1x    frame= 9748 fps=385 q=-0.0 size=N/A time=00:06:46.57 bitrate=N/A speed=16.1x    frame=10002 fps=387 q=-0.0 size=N/A time=00:06:57.16 bitrate=N/A speed=16.2x    frame=10229 fps=389 q=-0.0 size=N/A time=00:07:06.63 bitrate=N/A speed=16.2x    frame=10474 fps=390 q=-0.0 size=N/A time=00:07:16.85 bitrate=N/A speed=16.3x    frame=10720 fps=392 q=-0.0 size=N/A time=00:07:27.11 bitrate=N/A speed=16.3x    frame=10971 fps=394 q=-0.0 size=N/A time=00:07:37.58 bitrate=N/A speed=16.4x    frame=11244 fps=396 q=-0.0 size=N/A time=00:07:48.96 bitrate=N/A speed=16.5x    frame=11500 fps=398 q=-0.0 size=N/A time=00:07:59.64 bitrate=N/A speed=16.6x    frame=11770 fps=400 q=-0.0 size=N/A time=00:08:10.90 bitrate=N/A speed=16.7x    frame=12018 fps=401 q=-0.0 size=N/A time=00:08:21.25 bitrate=N/A speed=16.7x    frame=12260 fps=402 q=-0.0 size=N/A time=00:08:31.34 bitrate=N/A speed=16.8x    frame=12520 fps=404 q=-0.0 size=N/A time=00:08:42.18 bitrate=N/A speed=16.9x    frame=12751 fps=405 q=-0.0 size=N/A time=00:08:51.82 bitrate=N/A speed=16.9x    frame=12970 fps=405 q=-0.0 size=N/A time=00:09:00.95 bitrate=N/A speed=16.9x    frame=13227 fps=407 q=-0.0 size=N/A time=00:09:11.67 bitrate=N/A speed=  17x    frame=13471 fps=408 q=-0.0 size=N/A time=00:09:21.85 bitrate=N/A speed=  17x    frame=13733 fps=409 q=-0.0 size=N/A time=00:09:32.78 bitrate=N/A speed=17.1x    frame=13957 fps=410 q=-0.0 size=N/A time=00:09:42.12 bitrate=N/A speed=17.1x    frame=14211 fps=411 q=-0.0 size=N/A time=00:09:52.71 bitrate=N/A speed=17.1x    frame=14464 fps=412 q=-0.0 size=N/A time=00:10:03.26 bitrate=N/A speed=17.2x    frame=14697 fps=413 q=-0.0 size=N/A time=00:10:12.98 bitrate=N/A speed=17.2x    frame=14959 fps=414 q=-0.0 size=N/A time=00:10:23.91 bitrate=N/A speed=17.3x    frame=15184 fps=414 q=-0.0 size=N/A time=00:10:33.29 bitrate=N/A speed=17.3x    frame=15461 fps=416 q=-0.0 size=N/A time=00:10:44.85 bitrate=N/A speed=17.3x    frame=15700 fps=417 q=-0.0 size=N/A time=00:10:54.82 bitrate=N/A speed=17.4x    frame=15950 fps=418 q=-0.0 size=N/A time=00:11:05.24 bitrate=N/A speed=17.4x    frame=16211 fps=419 q=-0.0 size=N/A time=00:11:16.13 bitrate=N/A speed=17.5x    frame=16453 fps=419 q=-0.0 size=N/A time=00:11:26.22 bitrate=N/A speed=17.5x    frame=16699 fps=420 q=-0.0 size=N/A time=00:11:36.48 bitrate=N/A speed=17.5x    frame=16914 fps=420 q=-0.0 size=N/A time=00:11:45.45 bitrate=N/A speed=17.5x    frame=17135 fps=420 q=-0.0 size=N/A time=00:11:54.67 bitrate=N/A speed=17.5x    frame=17390 fps=421 q=-0.0 size=N/A time=00:12:05.30 bitrate=N/A speed=17.6x    frame=17653 fps=422 q=-0.0 size=N/A time=00:12:16.27 bitrate=N/A speed=17.6x    frame=17903 fps=423 q=-0.0 size=N/A time=00:12:26.70 bitrate=N/A speed=17.6x    frame=18143 fps=424 q=-0.0 size=N/A time=00:12:36.71 bitrate=N/A speed=17.7x    frame=18394 fps=424 q=-0.0 size=N/A time=00:12:47.18 bitrate=N/A speed=17.7x    frame=18632 fps=425 q=-0.0 size=N/A time=00:12:57.10 bitrate=N/A speed=17.7x    frame=18896 fps=426 q=-0.0 size=N/A time=00:13:08.12 bitrate=N/A speed=17.8x    frame=19146 fps=426 q=-0.0 size=N/A time=00:13:18.54 bitrate=N/A speed=17.8x    frame=19393 fps=427 q=-0.0 size=N/A time=00:13:28.84 bitrate=N/A speed=17.8x    frame=19640 fps=428 q=-0.0 size=N/A time=00:13:39.15 bitrate=N/A speed=17.8x    frame=19852 fps=427 q=-0.0 size=N/A time=00:13:47.99 bitrate=N/A speed=17.8x    frame=20055 fps=427 q=-0.0 size=N/A time=00:13:56.46 bitrate=N/A speed=17.8x    frame=20323 fps=428 q=-0.0 size=N/A time=00:14:07.63 bitrate=N/A speed=17.9x    frame=20576 fps=429 q=-0.0 size=N/A time=00:14:18.19 bitrate=N/A speed=17.9x    frame=20839 fps=430 q=-0.0 size=N/A time=00:14:29.15 bitrate=N/A speed=17.9x    frame=21099 fps=430 q=-0.0 size=N/A time=00:14:40.00 bitrate=N/A speed=17.9x    frame=21367 fps=431 q=-0.0 size=N/A time=00:14:51.18 bitrate=N/A speed=  18x    frame=21614 fps=432 q=-0.0 size=N/A time=00:15:01.48 bitrate=N/A speed=  18x    frame=21888 fps=433 q=-0.0 size=N/A time=00:15:12.91 bitrate=N/A speed=  18x    frame=22147 fps=433 q=-0.0 size=N/A time=00:15:23.71 bitrate=N/A speed=18.1x    frame=22396 fps=434 q=-0.0 size=N/A time=00:15:34.09 bitrate=N/A speed=18.1x    frame=22640 fps=434 q=-0.0 size=N/A time=00:15:44.27 bitrate=N/A speed=18.1x    frame=22900 fps=435 q=-0.0 size=N/A time=00:15:55.12 bitrate=N/A speed=18.1x    frame=23126 fps=435 q=-0.0 size=N/A time=00:16:04.54 bitrate=N/A speed=18.1x    frame=23375 fps=436 q=-0.0 size=N/A time=00:16:14.93 bitrate=N/A speed=18.2x    frame=23637 fps=436 q=-0.0 size=N/A time=00:16:25.85 bitrate=N/A speed=18.2x    frame=23915 fps=437 q=-0.0 size=N/A time=00:16:37.45 bitrate=N/A speed=18.2x    frame=24177 fps=438 q=-0.0 size=N/A time=00:16:48.38 bitrate=N/A speed=18.3x    frame=24464 fps=439 q=-0.0 size=N/A time=00:17:00.35 bitrate=N/A speed=18.3x    frame=24710 fps=439 q=-0.0 size=N/A time=00:17:10.61 bitrate=N/A speed=18.3x    frame=24931 fps=439 q=-0.0 size=N/A time=00:17:19.83 bitrate=N/A speed=18.3x    frame=25193 fps=440 q=-0.0 size=N/A time=00:17:30.75 bitrate=N/A speed=18.3x    frame=25453 fps=440 q=-0.0 size=N/A time=00:17:41.60 bitrate=N/A speed=18.4x    frame=25686 fps=440 q=-0.0 size=N/A time=00:17:51.32 bitrate=N/A speed=18.4x    frame=25931 fps=441 q=-0.0 size=N/A time=00:18:01.53 bitrate=N/A speed=18.4x    frame=26166 fps=441 q=-0.0 size=N/A time=00:18:11.34 bitrate=N/A speed=18.4x    frame=26413 fps=441 q=-0.0 size=N/A time=00:18:21.64 bitrate=N/A speed=18.4x    frame=26609 fps=441 q=-0.0 size=N/A time=00:18:29.81 bitrate=N/A speed=18.4x    frame=26804 fps=440 q=-0.0 size=N/A time=00:18:37.95 bitrate=N/A speed=18.4x    frame=27022 fps=440 q=-0.0 size=N/A time=00:18:47.04 bitrate=N/A speed=18.4x    frame=27225 fps=440 q=-0.0 size=N/A time=00:18:55.50 bitrate=N/A speed=18.3x    frame=27422 fps=439 q=-0.0 size=N/A time=00:19:03.72 bitrate=N/A speed=18.3x    frame=27662 fps=439 q=-0.0 size=N/A time=00:19:13.73 bitrate=N/A speed=18.3x    frame=27927 fps=440 q=-0.0 size=N/A time=00:19:24.78 bitrate=N/A speed=18.4x    frame=28204 fps=441 q=-0.0 size=N/A time=00:19:36.34 bitrate=N/A speed=18.4x    frame=28452 fps=441 q=-0.0 size=N/A time=00:19:46.68 bitrate=N/A speed=18.4x    frame=28678 fps=441 q=-0.0 size=N/A time=00:19:56.11 bitrate=N/A speed=18.4x    frame=28848 fps=440 q=-0.0 size=N/A time=00:20:03.20 bitrate=N/A speed=18.4x    frame=29063 fps=440 q=-0.0 size=N/A time=00:20:12.16 bitrate=N/A speed=18.4x    frame=29316 fps=440 q=-0.0 size=N/A time=00:20:22.72 bitrate=N/A speed=18.4x    frame=29543 fps=440 q=-0.0 size=N/A time=00:20:32.18 bitrate=N/A speed=18.4x    frame=29754 fps=440 q=-0.0 size=N/A time=00:20:40.98 bitrate=N/A speed=18.4x    frame=29940 fps=440 q=-0.0 size=N/A time=00:20:48.74 bitrate=N/A speed=18.3x    frame=30152 fps=439 q=-0.0 size=N/A time=00:20:57.58 bitrate=N/A speed=18.3x    frame=30371 fps=439 q=-0.0 size=N/A time=00:21:06.72 bitrate=N/A speed=18.3x    frame=30600 fps=439 q=-0.0 size=N/A time=00:21:16.27 bitrate=N/A speed=18.3x    frame=30849 fps=440 q=-0.0 size=N/A time=00:21:26.66 bitrate=N/A speed=18.3x    frame=31086 fps=440 q=-0.0 size=N/A time=00:21:36.54 bitrate=N/A speed=18.3x    frame=31264 fps=439 q=-0.0 size=N/A time=00:21:43.96 bitrate=N/A speed=18.3x    frame=31463 fps=439 q=-0.0 size=N/A time=00:21:52.26 bitrate=N/A speed=18.3x    frame=31720 fps=439 q=-0.0 size=N/A time=00:22:02.98 bitrate=N/A speed=18.3x    frame=31933 fps=439 q=-0.0 size=N/A time=00:22:11.87 bitrate=N/A speed=18.3x    frame=32191 fps=439 q=-0.0 size=N/A time=00:22:22.63 bitrate=N/A speed=18.3x    frame=32419 fps=439 q=-0.0 size=N/A time=00:22:32.14 bitrate=N/A speed=18.3x    frame=32624 fps=439 q=-0.0 size=N/A time=00:22:40.69 bitrate=N/A speed=18.3x    frame=32816 fps=439 q=-0.0 size=N/A time=00:22:48.70 bitrate=N/A speed=18.3x    frame=33038 fps=439 q=-0.0 size=N/A time=00:22:57.95 bitrate=N/A speed=18.3x    frame=33257 fps=438 q=-0.0 size=N/A time=00:23:07.09 bitrate=N/A speed=18.3x    frame=33490 fps=439 q=-0.0 size=N/A time=00:23:16.81 bitrate=N/A speed=18.3x    frame=33725 fps=439 q=-0.0 size=N/A time=00:23:26.61 bitrate=N/A speed=18.3x    [Parsed_psnr_10 @ 000001cf70757880] PSNR y:46.814759 u:50.076150 v:49.759074 average:47.624356 min:36.401852 max:inf
[out#0/null @ 000001cf6dcbfd40] video:14543KiB audio:264708KiB subtitle:0KiB other streams:0KiB global headers:0KiB muxing overhead: unknown
frame=33845 fps=439 q=-0.0 Lsize=N/A time=00:23:31.61 bitrate=N/A speed=18.3x    
